<svg width="121" height="98" viewBox="0 0 121 98" fill="none" xmlns="http://www.w3.org/2000/svg">
<path d="M45.1791 55.6784C45.618 47.8526 49.4439 40.9378 55.2409 36.0518C60.9135 31.2487 68.5324 28.3088 76.8965 28.3088C85.2192 28.3088 92.838 31.2445 98.5107 36.0518C104.308 40.9378 108.117 47.8526 108.572 55.6784C109.011 63.7113 105.777 71.2059 100.125 76.7543C94.3285 82.3856 86.1301 85.9466 76.8965 85.9466C67.6628 85.9466 59.4229 82.4104 53.6675 76.7543C47.9948 71.2059 44.765 63.7528 45.2205 55.7199L45.1791 55.6784Z" fill="white"/>
<path d="M62.5279 54.72C62.7535 50.6984 64.7196 47.1449 67.6985 44.6341C70.6137 42.1658 74.5289 40.655 78.8271 40.655C83.1041 40.655 87.0193 42.1637 89.9344 44.6341C92.9134 47.1449 94.871 50.6984 95.105 54.72C95.3306 58.848 93.6687 62.6993 90.7642 65.5506C87.7853 68.4445 83.5722 70.2744 78.8271 70.2744C74.0821 70.2744 69.8477 68.4572 66.89 65.5506C63.9749 62.6993 62.3151 58.8693 62.5492 54.7413L62.5279 54.72Z" fill="#265787"/>
<path d="M36.9939 63.2312C37.0215 64.8058 37.5237 67.8699 38.277 70.2531C39.8601 75.3173 42.5539 79.9985 46.2776 84.1053C50.1077 88.3396 54.8315 91.7442 60.2787 94.1699C66.0026 96.702 72.2159 98 78.6632 98C85.1106 97.9915 91.3238 96.6723 97.0477 94.1061C102.495 91.6591 107.219 88.2546 111.049 83.9989C114.794 79.8496 117.475 75.1684 119.049 70.1041C119.847 67.5508 120.352 64.9548 120.554 62.3588C120.752 59.8054 120.669 57.2307 120.305 54.6561C119.594 49.6557 117.858 44.9532 115.198 40.6975C112.772 36.761 109.623 33.3352 105.878 30.4413L105.887 30.435L68.2241 1.49642C68.19 1.47089 68.1624 1.4432 68.1262 1.4198C65.6579 -0.478228 61.4874 -0.471834 58.785 1.43045C56.0401 3.35401 55.721 6.53724 58.168 8.5374L58.1573 8.54805L73.882 21.3363L26.0058 21.3874H25.9419C21.9842 21.3916 18.1753 23.9834 17.4306 27.2815C16.6561 30.6222 19.3456 33.4096 23.4736 33.4096L23.4673 33.4246L47.7245 33.3777L4.31678 66.5719C4.26145 66.6124 4.20187 66.6549 4.1508 66.6953C0.0653604 69.8232 -1.2539 75.0365 1.32078 78.3133C3.93801 81.654 9.49165 81.6752 13.6196 78.3324L37.2386 58.9692C37.2386 58.9692 36.8939 61.5864 36.9216 63.1397L36.9939 63.2312ZM97.8499 71.9766C92.9772 76.9344 86.1468 79.7645 78.7845 79.7645C71.4009 79.7772 64.5706 76.9983 59.6979 72.0405C57.3147 69.6148 55.5699 66.8485 54.4847 63.8909C53.4271 60.9757 53.0165 57.8904 53.2888 54.7837C53.5463 51.7409 54.4528 48.8258 55.9061 46.2086C57.3275 43.6339 59.2893 41.2933 61.6938 39.3144C66.4388 35.463 72.4606 33.3564 78.759 33.3564C85.0787 33.3479 91.1004 35.4183 95.8455 39.2718C98.2499 41.2379 100.208 43.5701 101.633 46.1447C103.086 48.762 103.995 51.6558 104.25 54.7199C104.519 57.8265 104.108 60.9119 103.05 63.827C101.969 66.806 100.22 69.5722 97.8371 71.9979L97.8499 71.9766Z" fill="#EA7600"/>
</svg>
