<svg width="112" height="127" viewBox="0 0 112 127" fill="none" xmlns="http://www.w3.org/2000/svg">
<path d="M0 0.275925C12.4625 -0.249075 24.95 0.425926 37.425 0.213426C51.1875 -0.224074 64.9375 0.138425 78.7125 0.188425C89.6375 0.213425 100.562 0.138424 111.487 0.225924C108.05 38.1384 104.588 76.0509 101.4 113.988C86.7625 118.151 72.1125 122.251 57.475 126.388C55.6 127.163 53.675 126.438 51.875 125.951C37.9625 121.951 24.05 117.988 10.1125 114.138C6.4875 76.2134 3.075 38.2509 0 0.275925ZM55.975 10.1634C55.4625 28.8634 55.9 47.5634 55.75 66.2634C55.8875 83.3634 55.5 100.476 55.95 117.576C68.25 114.676 80.3875 111.113 92.525 107.601C95.575 75.1384 98.55 42.6759 101.1 10.1759C86.0625 10.0259 71.0125 10.2009 55.975 10.1634ZM40.325 83.1884C33.1 81.2134 25.9625 78.9384 18.6375 77.3759C18.425 81.7259 18.5 86.0759 19 90.4009C29.725 93.0134 40.225 96.4509 50.9625 99.0134C51.0375 74.2509 50.925 49.4759 51.0125 24.7134C47.5125 24.6259 44.0125 24.5759 40.5125 24.5009C40.1125 44.0509 40.4875 63.6259 40.325 83.1884Z" fill="#D6BA32"/>
<path d="M55.9749 10.1636C71.0124 10.2011 86.0624 10.0261 101.1 10.1761C98.5499 42.6761 95.5749 75.1386 92.5249 107.601C80.3874 111.114 68.2499 114.676 55.9499 117.576C55.4999 100.476 55.8874 83.3636 55.7499 66.2636C55.8999 47.5636 55.4624 28.8636 55.9749 10.1636ZM60.1874 24.7011C60.2374 40.8011 60.2499 56.9136 60.1874 73.0136C67.5374 71.8261 74.8624 70.4636 82.1874 69.1261C82.0749 72.8761 81.9249 76.6261 81.7624 80.3761C74.6249 82.2761 67.4999 84.2386 60.3249 86.0011C60.2124 90.3261 60.1999 94.6511 60.2374 98.9886C69.2749 96.9636 78.1749 94.4136 87.1499 92.1511C88.2749 91.6261 90.4374 91.6886 90.3374 89.9261C91.4249 78.3511 92.0999 66.7261 93.1499 55.1261C85.7124 55.7386 78.3499 56.9886 70.9124 57.5011C70.8499 50.9261 70.8374 44.3511 70.9374 37.7761C78.7624 37.7761 86.5749 37.7761 94.3999 37.7886C94.8999 33.4011 95.3374 29.0011 95.6749 24.6011C83.8499 24.6511 72.0124 24.4886 60.1874 24.7011Z" fill="#FFDA3E"/>
<path d="M40.325 83.1885C40.4875 63.626 40.1125 44.051 40.5125 24.501C44.0125 24.576 47.5125 24.626 51.0125 24.7135C50.925 49.476 51.0375 74.251 50.9625 99.0135C40.225 96.451 29.7251 93.0135 19.0001 90.401C18.5001 86.076 18.425 81.726 18.6375 77.376C25.9625 78.9385 33.1 81.2135 40.325 83.1885Z" fill="#EBEBEB"/>
</svg>
