<svg width="103" height="100" viewBox="0 0 103 100" fill="none" xmlns="http://www.w3.org/2000/svg">
<g clip-path="url(#clip0_707442_215)">
<path d="M18.1624 0H84.4017C94.4444 0 102.564 8.11966 102.564 18.1624V81.8376C102.564 91.8803 94.4444 100 84.4017 100H18.1624C8.11966 100 0 91.8803 0 81.8376V18.1624C0 8.11966 8.11966 0 18.1624 0Z" fill="#001E36"/>
<path d="M23.0769 70.1281V26.1537C23.0769 25.8546 23.2051 25.6837 23.5043 25.6837C24.2308 25.6837 24.9145 25.6837 25.8974 25.6409C26.9231 25.5982 27.9914 25.5982 29.1453 25.5555C30.2991 25.5127 31.5384 25.5127 32.8632 25.47C34.188 25.4272 35.4701 25.4272 36.7521 25.4272C40.2564 25.4272 43.1624 25.8546 45.5555 26.752C47.6923 27.4785 49.6581 28.6751 51.282 30.2563C52.6496 31.6238 53.7179 33.2905 54.4017 35.1281C55.0427 36.923 55.3846 38.7606 55.3846 40.6837C55.3846 44.3589 54.5299 47.3931 52.8205 49.7862C51.1111 52.1794 48.7179 53.9743 45.9402 54.9999C43.0342 56.0683 39.829 56.4529 36.3248 56.4529C35.2991 56.4529 34.6154 56.4529 34.188 56.4102C33.7607 56.3674 33.1624 56.3674 32.3504 56.3674V70.0854C32.3931 70.3845 32.1795 70.6409 31.8803 70.6837C31.8376 70.6837 31.7949 70.6837 31.7094 70.6837H23.5897C23.2478 70.6837 23.0769 70.5127 23.0769 70.1281ZM32.3931 33.9315V48.2905C32.9914 48.3332 33.547 48.376 34.0598 48.376H36.3248C37.9914 48.376 39.6581 48.1196 41.2393 47.6067C42.6068 47.2221 43.8034 46.4102 44.7436 45.3418C45.641 44.2734 46.0684 42.8204 46.0684 40.9401C46.1111 39.6153 45.7692 38.2905 45.0854 37.1366C44.359 36.0255 43.3333 35.1708 42.094 34.7007C40.5128 34.0597 38.8034 33.8033 37.0513 33.846C35.9402 33.846 34.9572 33.8461 34.1453 33.8888C33.2906 33.8461 32.6923 33.8888 32.3931 33.9315Z" fill="#31A8FF"/>
<path d="M82.0514 45.6838C80.7693 45 79.4018 44.5299 77.9488 44.2308C76.3676 43.8889 74.7864 43.6752 73.1625 43.6752C72.3078 43.6325 71.4103 43.7607 70.5984 43.9744C70.0428 44.1026 69.5727 44.4017 69.2736 44.8291C69.0599 45.1709 68.9317 45.5983 68.9317 45.9829C68.9317 46.3675 69.1026 46.7521 69.3591 47.094C69.7437 47.5641 70.2565 47.9487 70.812 48.2479C71.795 48.7607 72.8206 49.2308 73.8462 49.6581C76.1539 50.4273 78.3762 51.4957 80.4274 52.7778C81.8377 53.6752 82.9915 54.8718 83.8035 56.3248C84.4873 57.6923 84.8291 59.188 84.7864 60.7265C84.8291 62.735 84.2309 64.7436 83.1197 66.4102C81.9232 68.1196 80.2565 69.4444 78.3334 70.2137C76.2394 71.1111 73.6753 71.5812 70.5984 71.5812C68.6326 71.5812 66.7095 71.4102 64.7864 71.0256C63.2907 70.7692 61.795 70.2991 60.4274 69.6581C60.1283 69.4872 59.9146 69.188 59.9573 68.8461V61.4102C59.9573 61.282 60.0001 61.1111 60.1283 61.0256C60.2565 60.9402 60.3847 60.9829 60.5129 61.0684C62.1796 62.0513 63.9317 62.735 65.812 63.1624C67.436 63.5897 69.1454 63.8034 70.8548 63.8034C72.4787 63.8034 73.6326 63.5897 74.4018 63.2051C75.0856 62.906 75.5556 62.1795 75.5556 61.4102C75.5556 60.812 75.2138 60.2564 74.53 59.7008C73.8462 59.1453 72.436 58.5043 70.342 57.6923C68.1625 56.9231 66.1539 55.8974 64.2736 54.6154C62.9488 53.6752 61.8377 52.4359 61.0257 50.9829C60.342 49.6154 60.0001 48.1196 60.0428 46.6239C60.0428 44.7863 60.5556 43.0342 61.4958 41.453C62.5642 39.7436 64.1454 38.3761 65.983 37.5214C67.9915 36.4957 70.5129 36.0256 73.5471 36.0256C75.2992 36.0256 77.0941 36.1538 78.8462 36.4102C80.1283 36.5812 81.3676 36.9231 82.5215 37.3932C82.6924 37.4359 82.8633 37.6068 82.9488 37.7778C82.9915 37.9487 83.0343 38.1196 83.0343 38.2906V45.2564C83.0343 45.4273 82.9488 45.5983 82.8206 45.6838C82.436 45.7692 82.2223 45.7692 82.0514 45.6838Z" fill="#31A8FF"/>
</g>
<defs>
<clipPath id="clip0_707442_215">
<rect width="102.564" height="100" fill="white"/>
</clipPath>
</defs>
</svg>
