<svg width="145" height="140" viewBox="0 0 145 140" fill="none" xmlns="http://www.w3.org/2000/svg">
<path d="M71.5513 128.189C70.752 133.113 74.0963 137.753 79.0209 138.553C83.9456 139.352 88.5857 136.008 89.385 131.083C90.1843 126.158 86.8401 121.518 81.9154 120.719C76.9908 119.92 72.3506 123.264 71.5513 128.189Z" fill="#E1262F"/>
<path d="M14.2374 3.24249e-05C6.3742 3.24249e-05 -0.000211716 6.37445 -0.000211716 14.2377C-0.000211716 22.1009 6.3742 28.4753 14.2374 28.4753C22.1007 28.4753 28.4751 22.1009 28.4751 14.2377C28.4751 6.37445 22.1007 3.24249e-05 14.2374 3.24249e-05Z" fill="#E1262F"/>
<path d="M137.761 7.95356C134.291 7.95356 131.477 10.7671 131.477 14.2378C131.477 17.7084 134.291 20.522 137.761 20.522C141.232 20.522 144.046 17.7084 144.046 14.2378C144.046 10.7671 141.232 7.95356 137.761 7.95356Z" fill="#E1262F"/>
<path d="M80.5163 111.054C110.955 111.054 135.601 86.4078 135.601 55.9687C135.601 25.5296 110.955 0.883728 80.5163 0.883728C50.0772 0.883728 25.4313 25.5296 25.4313 55.9687C25.4313 86.4078 50.0772 111.054 80.5163 111.054ZM117.829 77.3743L80.6145 98.8781L43.4984 77.3743V57.9325L60.5836 63.4312V67.457L80.6145 79.0435L95.3431 70.5009L43.4984 53.9067V34.465L80.7127 12.9612L117.927 34.3668V53.9067L100.744 48.5062V44.4804L80.7127 32.8939L65.7877 41.5347L117.829 58.0307V77.3743Z" fill="#E1262F"/>
</svg>
